<?xml version="1.0" encoding="iso-8859-1"?>
<!-- Generator: Adobe Illustrator 19.0.0, SVG Export Plug-In . SVG Version: 6.00 Build 0)  -->
<svg version="1.1" id="Capa_1" xmlns="http://www.w3.org/2000/svg" xmlns:xlink="http://www.w3.org/1999/xlink" x="0px" y="0px"
	 viewBox="0 0 512 512" style="enable-background:new 0 0 512 512;" xml:space="preserve">
<g>
	<g>
		<path d="M203.304,229.797c-8.754,0-15.982,6.613-16.977,15.104h33.953C219.285,236.41,212.057,229.797,203.304,229.797z"/>
	</g>
</g>
<g>
	<g>
		<path d="M112.208,271H83.6v11.202h28.607c3.089,0,5.602-2.513,5.602-5.601C117.809,273.512,115.297,271,112.208,271z"/>
	</g>
</g>
<g>
	<g>
		<path d="M112.208,229.798H83.6V241h28.607c3.089,0,5.602-2.513,5.602-5.602C117.809,232.31,115.297,229.798,112.208,229.798z"/>
	</g>
</g>
<g>
	<g>
		<path d="M508.117,245.93l-27.733-30.62l11.631-69.871c0.851-5.113-0.998-10.303-4.891-13.727
			c-3.893-3.422-9.274-4.59-14.238-3.098l-71.497,21.567l-16.335-65.915c-1.317-5.316-5.428-9.492-10.724-10.893
			c-5.292-1.402-10.932,0.196-14.707,4.165l-48.52,51.032l-42.017-75.009c-2.653-4.735-7.658-7.669-13.087-7.669
			s-10.434,2.934-13.087,7.669l-42.017,75.009l-48.52-51.032c-3.774-3.969-9.413-5.568-14.707-4.165
			c-5.296,1.4-9.406,5.576-10.724,10.893l-16.335,65.915l-71.497-21.567c-4.961-1.494-10.346-0.325-14.238,3.098
			c-3.893,3.424-5.741,8.613-4.891,13.727l11.631,69.871L3.883,245.93c-5.177,5.715-5.177,14.424,0,20.139l27.733,30.62
			L19.985,366.56c-0.851,5.113,0.998,10.303,4.891,13.727c3.893,3.423,9.277,4.592,14.238,3.098l71.497-21.567l16.335,65.915
			c1.317,5.316,5.428,9.492,10.724,10.893c5.292,1.4,10.932-0.196,14.707-4.165l48.52-51.032l42.017,75.009
			c2.653,4.735,7.658,7.669,13.087,7.669c5.429,0,10.434-2.934,13.087-7.669l42.017-75.009l48.52,51.032
			c3.774,3.969,9.412,5.567,14.707,4.165c5.296-1.4,9.406-5.576,10.724-10.893l16.335-65.915l71.497,21.567
			c4.959,1.492,10.345,0.325,14.238-3.098c3.893-3.424,5.741-8.613,4.891-13.727l-11.631-69.871l27.733-30.62
			C513.294,260.354,513.294,251.645,508.117,245.93z M147.809,276.601c0,19.63-15.971,35.601-35.602,35.601H68.6
			c-8.284,0-15-6.716-15-15v-82.404c0-8.284,6.716-15,15-15h43.607c19.631,0,35.602,15.971,35.602,35.601
			c0,7.671-2.438,14.783-6.581,20.602C145.371,261.818,147.809,268.93,147.809,276.601z M250.407,297.202c0,8.284-6.716,15-15,15
			s-15-6.716-15-15v-22.301h-34.208v22.301c0,8.284-6.716,15-15,15s-15-6.716-15-15v-50.3c0-25.974,21.131-47.104,47.104-47.104
			c25.974,0,47.104,21.131,47.104,47.104V297.202z M344.06,311.388c-1.599,0.55-3.244,0.815-4.871,0.815
			c-4.537,0-8.938-2.063-11.835-5.781l-37.377-47.969v38.749c0,8.284-6.716,15-15,15s-15-6.716-15-15v-82.404
			c0-6.405,4.067-12.104,10.126-14.186c6.058-2.082,12.77-0.087,16.706,4.966l37.377,47.969v-38.749c0-8.284,6.716-15,15-15
			s15,6.716,15,15v82.404h0C354.186,303.607,350.119,309.306,344.06,311.388z M458.399,297.202c0,8.284-6.716,15-15,15h-23.44
			c-30.99,0-56.202-25.212-56.202-56.202s25.212-56.202,56.202-56.202h23.006c8.284,0,15,6.716,15,15s-6.716,15-15,15h-23.006
			c-14.448,0-26.202,11.754-26.202,26.202c0,14.448,11.754,26.202,26.202,26.202h8.44v-7.301h-8.225c-8.284,0-15-6.716-15-15
			c0-8.284,6.716-15,15-15h23.225c8.284,0,15,6.716,15,15V297.202z"/>
	</g>
</g>
<g>
</g>
<g>
</g>
<g>
</g>
<g>
</g>
<g>
</g>
<g>
</g>
<g>
</g>
<g>
</g>
<g>
</g>
<g>
</g>
<g>
</g>
<g>
</g>
<g>
</g>
<g>
</g>
<g>
</g>
</svg>
